<?xml version="1.0"?>
<svg xmlns="http://www.w3.org/2000/svg" id="_x33_0" enable-background="new 0 0 64 64" height="512px" viewBox="0 0 64 64" width="512px" class="hovered-paths"><g><g><g><g><path d="m32 31c-2.206 0-4-1.794-4-4s1.794-4 4-4 4 1.794 4 4-1.794 4-4 4z" fill="#f0bc5e" data-original="#F0BC5E" class="" style="fill:#3F92F8" data-old_color="#f0bc5e"/></g></g><g><path d="m24 19v2h6v-10h-6v2h4v2h-4v2h4v2z" data-original="#000000" class="hovered-path active-path" style="fill:#FFFFFF" data-old_color="#000000"/><path d="m40 16c0-2.757-2.243-5-5-5h-3v10h3c2.757 0 5-2.243 5-5zm-6-3h1c1.654 0 3 1.346 3 3s-1.346 3-3 3h-1z" data-original="#000000" class="hovered-path active-path" style="fill:#FFFFFF" data-old_color="#000000"/><path d="m29 7.618c-.439-.503-.765-1.106-.909-1.782l-15.091 7.546c.439.503.765 1.106.909 1.782z" data-original="#000000" class="hovered-path active-path" style="fill:#FFFFFF" data-old_color="#000000"/><path d="m9 19.858v24.284c.322-.084.653-.142 1-.142s.678.058 1 .142v-24.284c-.322.084-.653.142-1 .142s-.678-.058-1-.142z" data-original="#000000" class="hovered-path active-path" style="fill:#FFFFFF" data-old_color="#000000"/><path d="m13 50.618 15.091 7.546c.144-.676.47-1.279.909-1.782l-15.091-7.546c-.144.676-.47 1.279-.909 1.782z" data-original="#000000" class="hovered-path active-path" style="fill:#FFFFFF" data-old_color="#000000"/><path d="m35 56.382c.439.503.765 1.106.909 1.782l15.091-7.546c-.439-.503-.765-1.106-.909-1.782z" data-original="#000000" class="hovered-path active-path" style="fill:#FFFFFF" data-old_color="#000000"/><path d="m54 20c-.347 0-.678-.058-1-.142v24.284c.322-.084.653-.142 1-.142s.678.058 1 .142v-24.284c-.322.084-.653.142-1 .142z" data-original="#000000" class="hovered-path active-path" style="fill:#FFFFFF" data-old_color="#000000"/><path d="m51 13.382-15.091-7.546c-.145.676-.47 1.279-.909 1.782l15.091 7.546c.145-.676.47-1.279.909-1.782z" data-original="#000000" class="hovered-path active-path" style="fill:#FFFFFF" data-old_color="#000000"/><path d="m47 38c0-5.673-3.186-10.781-8.113-13.325l12.113-6.057c-.439-.503-.765-1.106-.909-1.782l-15.091 7.546c.615.703 1 1.612 1 2.618 0 .519-.107 1.011-.287 1.467.963 1.194 1.875 2.691 2.493 4.533h-5.206v-2.142c-.322.084-.653.142-1 .142s-.678-.058-1-.142v2.142h-5.206c.618-1.842 1.53-3.339 2.493-4.533-.18-.456-.287-.948-.287-1.467 0-.505.104-.983.276-1.428.173-.438.419-.84.724-1.19l-15.091-7.546c-.145.676-.47 1.279-.909 1.782l12.114 6.057c-4.928 2.544-8.114 7.652-8.114 13.325 0 8.271 6.729 15 15 15s15-6.729 15-15zm-2 0c0 1.033-.127 2.036-.356 3h-3.885c.152-.938.241-1.934.241-3 0-1.065-.091-2.061-.245-3h3.893c.23.969.352 1.973.352 3zm-8.79-11.987.357-.178c3.424 1.285 6.078 3.912 7.433 7.166h-3.695c-.896-3.085-2.525-5.378-4.095-6.988zm2.517 8.987c.174.929.273 1.927.273 3 0 1.077-.106 2.07-.278 3h-5.722v-6zm-7.727 0v6h-5.717c-.176-.93-.283-1.924-.283-3 0-1.073.099-2.071.273-3zm-3.56-9.162.355.178c-1.57 1.61-3.203 3.896-4.1 6.984h-3.695c1.355-3.255 4.014-5.877 7.44-7.162zm-8.089 9.162h3.893c-.153.939-.244 1.935-.244 3 0 1.066.089 2.062.241 3h-3.885c-.229-.964-.356-1.967-.356-3 0-1.027.122-2.031.351-3zm.656 8h3.68c.985 3.414 2.865 5.842 4.544 7.438-3.721-1.129-6.737-3.887-8.224-7.438zm5.795 0h5.198v7.155c-1.553-1.17-3.958-3.477-5.198-7.155zm7.198 7.173v-7.173h5.211c-1.235 3.714-3.649 6.013-5.211 7.173zm2.769.265c1.679-1.597 3.56-4.024 4.544-7.438h3.68c-1.487 3.551-4.503 6.309-8.224 7.438z" data-original="#000000" class="hovered-path active-path" style="fill:#FFFFFF" data-old_color="#000000"/></g><g><g><path d="m32 9c-2.206 0-4-1.794-4-4s1.794-4 4-4 4 1.794 4 4-1.794 4-4 4z" fill="#f0bc5e" data-original="#F0BC5E" class="" style="fill:#3F92F8" data-old_color="#f0bc5e"/></g></g><g><g><path d="m10 20c-2.206 0-4-1.794-4-4s1.794-4 4-4 4 1.794 4 4-1.794 4-4 4z" fill="#f0bc5e" data-original="#F0BC5E" class="" style="fill:#3F92F8" data-old_color="#f0bc5e"/></g></g><g><g><path d="m54 20c-2.206 0-4-1.794-4-4s1.794-4 4-4 4 1.794 4 4-1.794 4-4 4z" fill="#f0bc5e" data-original="#F0BC5E" class="" style="fill:#3F92F8" data-old_color="#f0bc5e"/></g></g><g><g><path d="m32 63c-2.206 0-4-1.794-4-4s1.794-4 4-4 4 1.794 4 4-1.794 4-4 4z" fill="#f0bc5e" data-original="#F0BC5E" class="" style="fill:#3F92F8" data-old_color="#f0bc5e"/></g></g><g><g><path d="m10 52c-2.206 0-4-1.794-4-4s1.794-4 4-4 4 1.794 4 4-1.794 4-4 4z" fill="#f0bc5e" data-original="#F0BC5E" class="" style="fill:#3F92F8" data-old_color="#f0bc5e"/></g></g><g><g><path d="m54 52c-2.206 0-4-1.794-4-4s1.794-4 4-4 4 1.794 4 4-1.794 4-4 4z" fill="#f0bc5e" data-original="#F0BC5E" class="" style="fill:#3F92F8" data-old_color="#f0bc5e"/></g></g><g><g><path d="m32 31c-2.206 0-4-1.794-4-4s1.794-4 4-4 4 1.794 4 4-1.794 4-4 4z" fill="#f0bc5e" data-original="#F0BC5E" class="" style="fill:#3F92F8" data-old_color="#f0bc5e"/></g></g></g></g> </svg>
