<svg xmlns="http://www.w3.org/2000/svg" width="890" height="480" viewBox="0 0 890 480" version="1.1"><path d="M 0.462 1.250 C 0.201 1.938, 0.103 109.825, 0.244 241 L 0.500 479.500 444.940 479.751 C 799.833 479.952, 889.541 479.750, 890.175 478.751 C 890.612 478.063, 890.976 370.063, 890.985 238.750 L 891 0 445.969 0 C 90.863 0, 0.841 0.253, 0.462 1.250 M 0.492 240 C 0.492 371.725, 0.608 425.613, 0.750 359.750 C 0.892 293.888, 0.892 186.113, 0.750 120.250 C 0.608 54.388, 0.492 108.275, 0.492 240 M 440 14.883 C 440 15.369, 439.212 16.018, 438.250 16.324 C 436.443 16.900, 428.598 21.246, 419 26.989 C 415.975 28.799, 412.038 31.117, 410.250 32.140 C 402.318 36.680, 399.214 38.443, 395 40.800 C 392.525 42.185, 388.821 44.371, 386.770 45.659 C 384.718 46.947, 382.816 48, 382.543 48 C 382.271 48, 377.526 50.700, 372 54 C 366.474 57.300, 361.513 60, 360.976 60 C 360.439 60, 360 60.450, 360 61 C 360 61.550, 359.438 62.031, 358.750 62.068 C 358.063 62.105, 353.225 64.710, 348 67.856 L 338.500 73.576 338.229 97.038 L 337.959 120.500 329.229 125.418 C 324.428 128.123, 313.616 134.331, 305.202 139.215 C 296.788 144.098, 287.788 149.262, 285.202 150.690 C 282.616 152.118, 272.400 158.019, 262.500 163.802 C 252.600 169.585, 242.250 175.563, 239.500 177.086 L 234.500 179.856 234.242 240.332 L 233.985 300.808 244.003 306.404 C 249.513 309.482, 254.429 312, 254.927 312 C 255.426 312, 255.983 312.363, 256.167 312.807 C 256.350 313.251, 260.775 316.039, 266 319.002 C 271.225 321.965, 281.480 327.902, 288.790 332.195 C 296.099 336.488, 302.254 340, 302.466 340 C 302.679 340, 306.599 342.310, 311.177 345.133 C 315.754 347.956, 320.625 350.770, 322 351.387 C 323.375 352.005, 327.522 354.307, 331.216 356.505 L 337.933 360.500 338.216 382.871 L 338.500 405.242 354 414.211 C 362.525 419.144, 371.300 424.216, 373.500 425.481 C 375.700 426.746, 387.850 433.740, 400.500 441.024 C 413.150 448.307, 425.300 455.219, 427.500 456.383 C 429.700 457.547, 431.725 458.725, 432 459 C 435.658 462.658, 444.024 464.070, 447.527 461.621 C 449.841 460.004, 454.175 457.507, 466.500 450.689 C 471.450 447.952, 476.625 444.945, 478 444.008 C 479.375 443.072, 482.975 440.950, 486 439.293 C 489.025 437.636, 498.700 432.100, 507.500 426.990 C 516.300 421.881, 525.300 416.685, 527.500 415.444 C 529.700 414.204, 534.650 411.343, 538.500 409.087 L 545.500 404.984 546 382.374 L 546.500 359.763 554 355.426 C 558.125 353.040, 566.675 348.119, 573 344.490 C 579.325 340.862, 585.175 337.475, 586 336.965 C 588.755 335.262, 598.437 329.741, 604 326.701 C 607.025 325.047, 610.694 322.863, 612.154 321.847 C 613.614 320.831, 615.061 320, 615.369 320 C 615.677 320, 621.981 316.400, 629.378 312 C 636.775 307.600, 643.134 304, 643.509 304 C 643.884 304, 645.498 303.069, 647.096 301.932 L 650 299.864 650 240.468 L 650 181.072 646.268 178.536 C 644.215 177.141, 641.965 176, 641.268 176 C 640.571 176, 640 175.633, 640 175.185 C 640 174.737, 638.334 173.576, 636.298 172.605 C 634.262 171.634, 629.320 168.851, 625.315 166.420 C 621.310 163.989, 617.576 162, 617.017 162 C 616.458 162, 616 161.550, 616 161 C 616 160.450, 615.570 160, 615.044 160 C 614.518 160, 611.706 158.574, 608.794 156.832 C 605.882 155.089, 600.575 152.015, 597 150 C 589.364 145.697, 585.414 143.415, 578.206 139.140 C 575.294 137.413, 572.735 136, 572.518 136 C 572.302 136, 566.979 132.920, 560.691 129.156 C 554.403 125.393, 548.533 122.035, 547.647 121.695 C 546.239 121.155, 546.003 118.084, 545.768 97.341 L 545.500 73.605 537 68.661 C 511.403 53.772, 497.639 46, 496.867 46 C 496.390 46, 496 45.550, 496 45 C 496 44.450, 495.570 44, 495.044 44 C 494.518 44, 491.706 42.574, 488.794 40.832 C 483.258 37.519, 473.342 31.883, 464 26.740 C 460.975 25.075, 458.050 23.375, 457.500 22.963 C 456.950 22.550, 454.813 21.265, 452.750 20.107 C 450.688 18.948, 447.411 17.100, 445.470 16 C 441.645 13.833, 440 13.498, 440 14.883 M 431.500 125.579 C 426.550 128.535, 421.375 131.566, 420 132.314 C 416.887 134.007, 412.067 136.791, 405.206 140.860 C 402.294 142.587, 399.753 144, 399.558 144 C 399.364 144, 396.242 145.800, 392.620 148 C 388.999 150.200, 385.578 152, 385.018 152 C 384.458 152, 384 152.378, 384 152.839 C 384 153.301, 382.762 154.231, 381.250 154.906 C 378.478 156.142, 373.795 158.818, 355.523 169.608 C 350.035 172.849, 343.844 176.302, 341.765 177.283 L 337.984 179.065 338.242 239.139 L 338.500 299.213 354 308.188 C 362.525 313.124, 371.300 318.185, 373.500 319.434 C 375.700 320.683, 382.225 324.540, 388 328.006 C 393.775 331.472, 400.975 335.657, 404 337.306 C 407.025 338.956, 410.694 341.137, 412.154 342.153 C 413.614 343.169, 415.085 344, 415.422 344 C 415.760 344, 418.999 345.800, 422.620 348 C 426.242 350.200, 429.368 352, 429.567 352 C 429.767 352, 432.059 353.350, 434.661 355 C 437.263 356.650, 440.409 358, 441.652 358 C 443.549 358, 449.545 355.082, 456 351.017 C 457.736 349.924, 464.529 345.989, 474.500 340.299 C 478.350 338.102, 487.125 333.031, 494 329.028 C 512.116 318.482, 516.899 315.732, 525 311.200 C 527.475 309.815, 531.179 307.629, 533.230 306.341 C 535.282 305.053, 537.203 304, 537.500 304 C 537.797 304, 539.831 302.869, 542.020 301.487 L 546 298.975 546 239.556 L 546 180.136 543.096 178.068 C 541.498 176.931, 539.913 176, 539.574 176 C 539.035 176, 533.020 172.490, 513.684 160.889 C 511.035 159.300, 508.692 158, 508.478 158 C 508.263 158, 505.706 156.587, 502.794 154.860 C 499.882 153.133, 495.925 150.839, 494 149.761 C 483.091 143.654, 472.435 137.487, 471.997 137.028 C 471.437 136.440, 463.740 132.197, 460.258 130.556 C 459.025 129.975, 458.012 129.162, 458.008 128.750 C 458.004 128.338, 457.590 128, 457.090 128 C 456.589 128, 453.003 126.200, 449.120 124 C 445.238 121.800, 441.710 120.046, 441.281 120.102 C 440.851 120.158, 436.450 122.623, 431.500 125.579 M 632 449.154 C 632 449.619, 632.675 450, 633.500 450 C 634.583 450, 635 451.111, 635 454 C 635 456.200, 635.450 458, 636 458 C 636.550 458, 637 456.200, 637 454 C 637 451.111, 637.417 450, 638.500 450 C 639.325 450, 640 449.619, 640 449.154 C 640 448.688, 638.200 448.308, 636 448.308 C 633.800 448.308, 632 448.688, 632 449.154 M 641.688 448.646 C 640.625 449.708, 640.876 456.805, 642 457.500 C 642.554 457.842, 643.014 457.088, 643.032 455.809 C 643.063 453.571, 643.108 453.559, 644.521 455.427 C 646.092 457.502, 646.120 457.494, 647.881 454.500 C 649.024 452.555, 649.049 452.561, 648.778 454.705 C 648.625 455.917, 648.950 456.930, 649.500 456.955 C 650.050 456.980, 650.500 455.200, 650.500 453 C 650.500 448.587, 649.045 447.547, 647.513 450.863 C 646.249 453.598, 645.225 453.585, 644.820 450.828 C 644.488 448.573, 642.880 447.453, 641.688 448.646" stroke="none" fill="#ffffff" fill-rule="evenodd"/><path d="M 433.191 18.780 C 430.821 20.119, 429.141 21.474, 429.458 21.791 C 429.774 22.108, 430.566 21.834, 431.217 21.183 C 431.867 20.533, 433.017 20, 433.771 20 C 435.132 20, 438.577 17.162, 437.869 16.625 C 437.666 16.471, 435.561 17.441, 433.191 18.780 M 419 26.834 C 413.842 30.018, 412.065 31.575, 413.309 31.817 C 414.304 32.011, 415.932 31.231, 416.927 30.085 C 417.921 28.938, 419.469 28, 420.367 28 C 421.265 28, 422 27.550, 422 27 C 422 26.450, 422.707 26, 423.571 26 C 425.087 26, 428 23.745, 428 22.571 C 428 21.494, 426.489 22.210, 419 26.834 M 456 22.618 C 456 23.881, 459.137 26.117, 460.496 25.823 C 461.487 25.609, 460.981 24.927, 458.995 23.797 C 457.348 22.860, 456 22.329, 456 22.618 M 408.616 32.812 C 408.295 33.332, 406.413 34.525, 404.435 35.464 C 402.456 36.403, 401.100 37.433, 401.420 37.754 C 402.080 38.414, 406.800 36.163, 408.869 34.202 C 409.622 33.489, 410.005 32.671, 409.719 32.386 C 409.434 32.100, 408.937 32.292, 408.616 32.812 M 474.708 33.885 C 475.923 35.048, 477.610 36, 478.458 36 C 479.306 36, 480 36.450, 480 37 C 480 37.550, 480.590 38, 481.311 38 C 482.033 38, 483.589 38.900, 484.770 40 C 485.950 41.100, 487.610 42, 488.458 42 C 489.306 42, 490 42.450, 490 43 C 490 43.550, 490.590 44, 491.311 44 C 492.033 44, 493.621 44.930, 494.842 46.067 C 496.063 47.205, 497.835 47.927, 498.781 47.673 C 500.211 47.289, 500.122 47.091, 498.250 46.489 C 497.012 46.092, 496 45.369, 496 44.883 C 496 44.398, 495.542 44, 494.983 44 C 494.424 44, 490.711 42.035, 486.733 39.633 C 482.755 37.231, 477.925 34.479, 476 33.518 L 472.500 31.769 474.708 33.885 M 390.233 43.496 C 383.968 47.308, 383.186 48, 385.145 48 C 385.958 48, 387.589 47.100, 388.770 46 C 389.950 44.900, 391.417 44, 392.030 44 C 393.223 44, 396.484 41.110, 395.869 40.598 C 395.666 40.429, 393.130 41.733, 390.233 43.496 M 375.673 51.668 C 372.468 53.599, 370.026 55.359, 370.246 55.579 C 370.833 56.166, 375.983 53.630, 375.992 52.750 C 375.996 52.337, 376.694 52, 377.542 52 C 378.390 52, 380.050 51.100, 381.230 50 C 384.391 47.056, 382.274 47.691, 375.673 51.668 M 502.609 49.743 C 504.667 51.765, 512.162 56, 513.683 56 C 514.685 56, 511.675 53.974, 505.500 50.491 C 501.581 48.281, 500.956 48.119, 502.609 49.743 M 516.500 57.610 C 517.600 58.649, 519.737 60.139, 521.250 60.919 C 522.763 61.699, 524 62.712, 524 63.169 C 524 63.626, 524.900 64, 526 64 C 527.100 64, 528 64.450, 528 65 C 528 65.550, 528.788 65.976, 529.750 65.948 C 531.174 65.905, 531.050 65.578, 529.085 64.198 C 524.430 60.926, 514.520 55.738, 516.500 57.610 M 360 60.883 C 360 61.369, 359.007 62.026, 357.794 62.344 C 356.580 62.661, 355.847 63.180, 356.164 63.498 C 356.916 64.249, 362 61.933, 362 60.839 C 362 60.378, 361.550 60, 361 60 C 360.450 60, 360 60.398, 360 60.883 M 532 66.805 C 532 67.329, 533.350 68.317, 535 69 C 536.650 69.683, 538 70.638, 538 71.121 C 538 71.605, 538.707 72, 539.571 72 C 540.436 72, 541.898 72.755, 542.821 73.678 C 544.263 75.119, 544.548 78.331, 544.841 96.428 C 545.162 116.191, 545.061 117.640, 543.224 119.750 C 542.147 120.987, 540.531 122, 539.633 122 C 538.735 122, 538 122.450, 538 123 C 538 124.518, 542.948 124.195, 544.571 122.571 C 546.529 120.614, 546.695 74.781, 544.750 73.281 C 541.532 70.800, 532 65.959, 532 66.805 M 342.727 71.062 C 339.332 73.175, 338.009 74.637, 338.030 76.252 C 338.060 78.441, 338.091 78.447, 339.216 76.500 C 340.820 73.721, 342.650 72, 344 72 C 345.282 72, 348.455 69.122, 347.846 68.512 C 347.630 68.296, 345.326 69.444, 342.727 71.062 M 436.250 121.220 C 435.012 121.817, 434 122.687, 434 123.153 C 434 123.619, 433.293 124, 432.429 124 C 431.564 124, 430.182 124.675, 429.357 125.500 C 428.532 126.325, 428.172 127, 428.557 127 C 429.498 127, 440 120.967, 440 120.427 C 440 119.762, 438.705 120.036, 436.250 121.220 M 338.667 123.667 C 337.629 124.704, 337.883 128, 339 128 C 339.550 128, 340 126.875, 340 125.500 C 340 122.882, 339.769 122.564, 338.667 123.667 M 452.500 125.869 C 454.150 126.891, 455.666 127.585, 455.869 127.411 C 456.671 126.725, 453.034 124, 451.321 124.005 C 449.979 124.009, 450.289 124.499, 452.500 125.869 M 533 126 C 532.207 127.100, 530.758 128, 529.779 128 C 528.801 128, 528 128.450, 528 129 C 528 129.550, 527.199 130, 526.221 130 C 525.242 130, 523.793 130.900, 523 132 C 522.207 133.100, 520.758 134, 519.779 134 C 518.801 134, 518 134.450, 518 135 C 518 135.550, 517.199 136, 516.221 136 C 515.242 136, 513.793 136.900, 513 138 C 512.205 139.103, 510.411 140, 509 140 C 507.589 140, 505.795 140.897, 505 142 C 504.207 143.100, 502.758 144, 501.779 144 C 499.896 144, 499.372 145.494, 500.919 146.450 C 501.425 146.763, 502.518 146.339, 503.348 145.509 C 504.178 144.679, 505.564 144, 506.429 144 C 507.293 144, 508 143.550, 508 143 C 508 142.450, 508.900 142, 510 142 C 511.100 142, 512 141.550, 512 141 C 512 140.450, 512.801 140, 513.779 140 C 514.758 140, 516.207 139.100, 517 138 C 517.793 136.900, 519.242 136, 520.221 136 C 521.199 136, 522 135.550, 522 135 C 522 134.450, 522.801 134, 523.779 134 C 524.758 134, 526.207 133.100, 527 132 C 527.793 130.900, 529.242 130, 530.221 130 C 531.199 130, 532 129.550, 532 129 C 532 128.450, 532.707 128, 533.571 128 C 535.087 128, 538 125.745, 538 124.571 C 538 123.145, 534.295 124.204, 533 126 M 421.250 129.496 C 418.572 132.538, 420.341 132.862, 424 130 C 426.283 128.214, 426.326 128.046, 424.500 128.060 C 423.400 128.069, 421.938 128.715, 421.250 129.496 M 461 130.405 C 461 130.958, 469.667 136, 470.617 136 C 471.035 136, 470.411 135.100, 469.230 134 C 468.050 132.900, 466.390 132, 465.542 132 C 464.694 132, 464 131.550, 464 131 C 464 130.450, 463.325 130, 462.500 130 C 461.675 130, 461 130.182, 461 130.405 M 416 132.756 C 416 133.172, 414.650 134.109, 413 134.840 C 411.350 135.570, 410 136.572, 410 137.067 C 410 137.561, 411.688 137.031, 413.750 135.889 C 418.659 133.169, 419.847 132, 417.700 132 C 416.765 132, 416 132.340, 416 132.756 M 472.017 136.750 C 472.026 137.162, 474.726 138.951, 478.017 140.723 C 481.307 142.496, 483.993 143.621, 483.984 143.223 C 483.976 142.826, 481.726 141.399, 478.984 140.053 C 476.243 138.707, 474 137.245, 474 136.803 C 474 136.361, 473.550 136, 473 136 C 472.450 136, 472.007 136.338, 472.017 136.750 M 406 139 C 406 139.550, 405.293 140, 404.429 140 C 402.958 140, 400 142.243, 400 143.358 C 400 143.634, 402.025 142.727, 404.500 141.344 C 409.298 138.662, 409.892 138, 407.500 138 C 406.675 138, 406 138.450, 406 139 M 485.550 144.857 C 486.072 145.328, 488.483 146.791, 490.906 148.107 C 494.093 149.837, 495.431 150.154, 495.740 149.250 C 495.974 148.563, 497.029 148, 498.083 148 C 499.137 148, 500 147.550, 500 147 C 500 146.450, 499.100 146, 498 146 C 496.900 146, 496 146.450, 496 147 C 496 147.550, 495.100 148, 494 148 C 492.900 148, 492 147.550, 492 147 C 492 146.450, 491.100 146, 490 146 C 488.900 146, 488 145.550, 488 145 C 488 144.450, 487.235 144, 486.300 144 C 485.284 144, 484.982 144.345, 485.550 144.857 M 391.992 146.750 C 391.983 147.592, 387.188 150, 385.521 150 C 384.927 150, 383.793 150.900, 383 152 C 382.207 153.100, 380.758 154, 379.779 154 C 378.801 154, 378 154.450, 378 155 C 378 155.550, 377.293 156, 376.429 156 C 374.975 156, 372 158.239, 372 159.332 C 372 159.845, 383.171 154.015, 384 153.070 C 384.275 152.756, 386.525 151.423, 389 150.107 C 394.644 147.105, 395.909 146, 393.700 146 C 392.765 146, 391.996 146.338, 391.992 146.750 M 368 161 C 368 161.550, 367.100 162, 366 162 C 364.900 162, 364 162.340, 364 162.756 C 364 163.172, 362.650 164.109, 361 164.840 C 359.350 165.570, 358 166.528, 358 166.968 C 358 167.409, 360.925 166.216, 364.500 164.318 C 371.200 160.760, 372.080 160, 369.500 160 C 368.675 160, 368 160.450, 368 161 M 338.574 166.297 C 338.126 167.835, 338.039 169.372, 338.380 169.713 C 339.499 170.833, 340.158 169.235, 339.770 166.341 L 339.389 163.500 338.574 166.297 M 346.250 173.220 C 345.012 173.817, 344 174.687, 344 175.153 C 344 176.489, 345.295 176.116, 348 174 C 350.714 171.877, 349.842 171.488, 346.250 173.220 M 337.112 175.644 C 335.419 177.556, 337.131 179.040, 340.126 178.257 C 342.572 177.617, 343.598 176, 341.559 176 C 340.702 176, 340 175.550, 340 175 C 340 173.551, 338.711 173.838, 337.112 175.644 M 540.500 302.294 C 538.300 303.507, 534.475 305.686, 532 307.136 C 526.116 310.583, 520.397 313.822, 515.750 316.339 C 513.688 317.457, 512 318.738, 512 319.186 C 512 319.633, 511.382 320, 510.627 320 C 509.871 320, 505.934 321.960, 501.877 324.356 C 493.644 329.218, 478.131 338.210, 467.500 344.281 C 463.650 346.480, 459.281 349.116, 457.790 350.140 C 456.300 351.163, 454.858 352, 454.584 352 C 454.311 352, 451.798 353.350, 449 355 C 446.202 356.650, 442.895 358, 441.652 358 C 440.409 358, 437.263 356.650, 434.661 355 C 432.059 353.350, 429.678 352, 429.370 352 C 429.061 352, 427.614 351.169, 426.154 350.153 C 424.694 349.137, 421.025 346.953, 418 345.299 C 414.975 343.646, 410.118 340.877, 407.206 339.147 C 404.294 337.416, 401.722 336, 401.491 336 C 401.259 336, 398.941 334.650, 396.339 333 C 391.596 329.992, 388 329.130, 388 331 C 388 331.550, 387.100 332, 386 332 C 384.667 332, 384 332.667, 384 334 C 384 335.475, 383.333 336, 381.458 336 C 380.060 336, 377.950 336.900, 376.770 338 C 375.589 339.100, 374.033 340, 373.311 340 C 372.590 340, 372 340.450, 372 341 C 372 341.550, 371.100 342, 370 342 C 368.900 342, 368 342.450, 368 343 C 368 343.550, 367.100 344, 366 344 C 364.900 344, 364 344.450, 364 345 C 364 345.550, 363.261 346, 362.358 346 C 361.455 346, 359.426 347.350, 357.850 349 C 356.273 350.650, 353.961 352, 352.712 352 C 351.463 352, 349.793 352.900, 349 354 C 348.207 355.100, 346.758 356, 345.779 356 C 344.801 356, 344 356.450, 344 357 C 344 357.550, 343.293 358, 342.429 358 C 338.257 358, 337.949 359.839, 338.231 383.069 L 338.500 405.242 354 414.211 C 401.917 441.939, 414.363 448.894, 415.171 448.394 C 415.627 448.112, 416 448.316, 416 448.846 C 416 449.793, 422.590 454.065, 428.500 456.951 C 430.150 457.756, 431.725 458.659, 432 458.958 C 435.350 462.591, 444.014 464.077, 447.527 461.621 C 449.712 460.094, 453.591 457.848, 465.500 451.215 C 469.900 448.765, 476.755 444.789, 480.733 442.380 C 484.711 439.971, 488.230 438, 488.553 438 C 488.876 438, 491.102 436.650, 493.500 435 C 495.898 433.350, 498.095 432, 498.382 432 C 498.669 432, 504.427 428.785, 511.179 424.855 C 517.931 420.926, 524.841 416.932, 526.535 415.981 C 528.229 415.029, 533.301 412.109, 537.807 409.490 L 546 404.730 545.985 353.115 C 545.975 319.422, 545.633 302.021, 545 303 C 544.162 304.297, 544.029 304.275, 544.015 302.833 C 544.007 301.917, 544.563 300.940, 545.250 300.662 C 545.938 300.385, 546.050 300.142, 545.500 300.123 C 544.950 300.104, 542.700 301.081, 540.500 302.294" stroke="none" fill="#a03289" fill-rule="evenodd"/><path d="M 544.600 122.542 C 543.799 123.344, 542.436 124, 541.571 124 C 540.707 124, 540 124.450, 540 125 C 540 125.550, 539.100 126, 538 126 C 536.900 126, 536 126.450, 536 127 C 536 127.550, 535.100 128, 534 128 C 532.900 128, 532 128.450, 532 129 C 532 129.550, 531.438 130.001, 530.750 130.001 C 530.063 130.002, 528.178 131.140, 526.562 132.529 C 524.945 133.919, 522.470 135.341, 521.062 135.688 C 519.653 136.036, 517.772 137.148, 516.883 138.160 C 515.993 139.172, 514.531 140, 513.633 140 C 512.735 140, 512 140.450, 512 141 C 512 141.550, 511.100 142, 510 142 C 508.900 142, 508 142.450, 508 143 C 508 143.550, 507.100 144, 506 144 C 504.900 144, 504 144.382, 504 144.848 C 504 145.315, 502.200 146.508, 500 147.500 C 497.800 148.492, 496 149.649, 496 150.070 C 496 150.852, 498.973 152.793, 507 157.253 C 515.633 162.050, 523.555 166.643, 531.233 171.305 C 535.486 173.887, 539.242 176, 539.579 176 C 539.916 176, 541.498 176.931, 543.096 178.068 L 546 180.136 545.989 269.724 C 545.983 318.997, 546.096 359.420, 546.239 359.552 C 546.383 359.684, 549.875 357.834, 554 355.440 C 558.125 353.047, 566.675 348.119, 573 344.490 C 579.325 340.862, 585.175 337.475, 586 336.965 C 588.755 335.262, 598.437 329.741, 604 326.701 C 607.025 325.047, 610.694 322.863, 612.154 321.847 C 613.614 320.831, 615.061 320, 615.369 320 C 615.677 320, 621.981 316.400, 629.378 312 C 636.775 307.600, 643.134 304, 643.509 304 C 643.884 304, 645.498 303.069, 647.096 301.932 L 650 299.864 650 240.468 L 650 181.072 646.268 178.536 C 644.215 177.141, 641.965 176, 641.268 176 C 640.571 176, 640 175.633, 640 175.185 C 640 174.737, 638.334 173.576, 636.298 172.605 C 634.262 171.634, 629.320 168.851, 625.315 166.420 C 621.310 163.989, 617.576 162, 617.017 162 C 616.458 162, 616 161.550, 616 161 C 616 160.450, 615.570 160, 615.044 160 C 614.518 160, 611.706 158.574, 608.794 156.832 C 605.882 155.089, 600.575 152.015, 597 150 C 589.364 145.697, 585.414 143.415, 578.206 139.140 C 575.294 137.413, 572.735 136, 572.518 136 C 572.302 136, 566.979 132.920, 560.691 129.156 C 546.870 120.884, 546.437 120.706, 544.600 122.542 M 318.250 131.573 C 314.813 133.522, 312 135.348, 312 135.631 C 312 136.185, 322.869 130.264, 324.450 128.850 C 326.209 127.276, 324.533 128.012, 318.250 131.573 M 277.250 155.105 C 274.363 156.788, 272 158.396, 272 158.678 C 272 159.233, 280.893 154.288, 282.450 152.867 C 284.145 151.320, 282.605 151.983, 277.250 155.105 M 258.250 166.105 C 255.363 167.788, 253 169.396, 253 169.678 C 253 170.233, 261.893 165.288, 263.450 163.867 C 265.145 162.320, 263.605 162.983, 258.250 166.105 M 337.463 240 C 337.463 266.675, 337.592 277.587, 337.749 264.250 C 337.907 250.912, 337.907 229.088, 337.749 215.750 C 337.592 202.412, 337.463 213.325, 337.463 240 M 337.261 297.482 C 337.499 299.302, 349.611 307.722, 350.587 306.746 C 350.800 306.534, 348.225 304.816, 344.865 302.930 C 341.505 301.043, 338.362 298.600, 337.879 297.500 C 337.015 295.528, 337.006 295.528, 337.261 297.482 M 352.323 307.714 C 352.695 308.316, 355.588 310.259, 358.750 312.032 C 361.913 313.804, 366.413 316.365, 368.750 317.722 C 371.087 319.080, 373 319.974, 373 319.709 C 373 319.444, 369.738 317.316, 365.750 314.980 C 361.762 312.644, 356.958 309.807, 355.073 308.675 C 353.188 307.544, 351.951 307.111, 352.323 307.714 M 256.083 313.319 C 258.243 314.974, 264 317.761, 264 317.151 C 264 316.722, 262.410 315.612, 260.466 314.685 C 257.327 313.188, 254.943 312.445, 256.083 313.319 M 374.500 320.765 C 375.859 322.144, 387 328.317, 387 327.691 C 387 327.416, 384.413 325.686, 381.250 323.846 C 374.665 320.016, 373.023 319.266, 374.500 320.765 M 283 328.306 C 283 329.071, 302.189 340.144, 302.674 339.659 C 302.907 339.427, 300.262 337.669, 296.798 335.754 C 293.334 333.838, 288.813 331.265, 286.750 330.037 C 284.688 328.808, 283 328.029, 283 328.306 M 314.171 346.894 C 321.250 351.383, 323 352.204, 323 351.035 C 323 350.466, 322.557 350, 322.015 350 C 321.473 350, 318.836 348.650, 316.154 347 C 313.473 345.350, 310.903 344, 310.444 344 C 309.984 344, 311.662 345.302, 314.171 346.894 M 325 352.346 C 325 353.024, 336.520 360.001, 337.631 359.996 C 338.109 359.994, 336.925 359.047, 335 357.891 C 333.075 356.735, 330.038 354.900, 328.250 353.813 C 326.462 352.726, 325 352.066, 325 352.346" stroke="none" fill="#149db0" fill-rule="evenodd"/><path d="M 317.500 133 C 307.050 139.021, 297.938 143.959, 297.250 143.974 C 296.563 143.988, 296 144.370, 296 144.823 C 296 145.275, 293.937 146.738, 291.415 148.073 C 288.893 149.408, 286.081 150.950, 285.165 151.500 C 282.309 153.215, 271.670 159.380, 267.929 161.488 C 239.228 177.657, 235.188 180.309, 234.572 183.390 C 233.716 187.670, 233.930 298.280, 234.797 299.627 C 235.184 300.227, 241.575 304.135, 249 308.311 C 256.425 312.487, 263.044 316.375, 263.708 316.952 C 264.372 317.528, 265.128 318, 265.389 318 C 266.041 318, 298.909 336.811, 302 338.954 C 304.461 340.660, 316.361 347.304, 320.742 349.418 C 321.975 350.013, 322.988 350.837, 322.992 351.250 C 322.996 351.663, 323.484 352, 324.075 352 C 324.667 352, 328.346 353.899, 332.252 356.219 C 336.925 358.995, 339.493 360.021, 339.760 359.219 C 339.984 358.549, 341.029 358, 342.083 358 C 343.137 358, 344 357.550, 344 357 C 344 356.450, 344.801 356, 345.779 356 C 346.758 356, 348.207 355.100, 349 354 C 349.793 352.900, 351.463 352, 352.712 352 C 353.961 352, 356.273 350.650, 357.850 349 C 359.426 347.350, 361.455 346, 362.358 346 C 363.261 346, 364 345.550, 364 345 C 364 344.450, 364.900 344, 366 344 C 367.100 344, 368 343.550, 368 343 C 368 342.450, 368.900 342, 370 342 C 371.100 342, 372 341.550, 372 341 C 372 340.450, 372.590 340, 373.311 340 C 374.033 340, 375.589 339.100, 376.770 338 C 377.950 336.900, 380.060 336, 381.458 336 C 383.333 336, 384 335.475, 384 334 C 384 332.704, 384.667 332, 385.893 332 C 386.934 332, 388.027 331.372, 388.321 330.605 C 388.800 329.357, 377.281 322.250, 348.680 306.146 C 346.381 304.852, 342.838 302.725, 340.806 301.420 L 337.113 299.046 337.306 238.523 C 337.433 198.979, 337.153 177.826, 336.500 177.500 C 335.902 177.201, 336.003 176.765, 336.750 176.417 C 337.705 175.971, 338 169.472, 338 148.917 C 338 134.113, 337.663 122.012, 337.250 122.026 C 336.837 122.041, 327.950 126.979, 317.500 133 M 633.250 449.689 C 634.487 450.013, 635 451.151, 635 453.573 C 635 455.458, 635.450 457, 636 457 C 636.550 457, 637 455.458, 637 453.573 C 637 451.151, 637.513 450.013, 638.750 449.689 C 639.712 449.438, 638.475 449.232, 636 449.232 C 633.525 449.232, 632.288 449.438, 633.250 449.689 M 642.118 453.167 C 642.225 457.090, 642.302 457.216, 642.923 454.500 C 643.576 451.648, 643.648 451.611, 644.372 453.750 C 644.792 454.988, 645.524 456, 646 456 C 646.476 456, 647.208 454.988, 647.628 453.750 C 648.352 451.611, 648.424 451.648, 649.077 454.500 C 649.705 457.244, 649.773 457.138, 649.882 453.250 C 650.011 448.603, 648.589 447.518, 647.589 451.500 C 646.817 454.576, 645.251 454.762, 644.820 451.828 C 644.644 450.634, 643.938 449.471, 643.250 449.245 C 642.368 448.954, 642.035 450.108, 642.118 453.167" stroke="none" fill="#0c4f9d" fill-rule="evenodd"/><path d="M 437 18 C 436.207 19.100, 434.977 20, 434.266 20 C 432.533 20, 428.897 22.096, 426.893 24.250 C 425.998 25.212, 424.531 26, 423.633 26 C 422.735 26, 422 26.450, 422 27 C 422 27.550, 421.199 28, 420.221 28 C 419.242 28, 417.793 28.900, 417 30 C 416.207 31.100, 414.473 32, 413.147 32 C 411.820 32, 410.002 32.788, 409.107 33.750 C 407.010 36.003, 403.443 38, 401.514 38 C 400.681 38, 400 38.450, 400 39 C 400 39.550, 399.199 40, 398.221 40 C 397.242 40, 395.793 40.900, 395 42 C 394.207 43.100, 392.964 44, 392.237 44 C 391.511 44, 389.950 44.900, 388.770 46 C 387.589 47.100, 385.893 48, 385 48 C 384.107 48, 382.411 48.900, 381.230 50 C 380.050 51.100, 378.390 52, 377.542 52 C 376.694 52, 375.996 52.337, 375.992 52.750 C 375.983 53.592, 371.188 56, 369.521 56 C 368.927 56, 367.793 56.900, 367 58 C 366.207 59.100, 364.951 60, 364.208 60 C 363.465 60, 362.183 60.674, 361.359 61.498 C 360.534 62.323, 358.654 63.295, 357.180 63.658 C 355.706 64.022, 353.772 65.148, 352.883 66.160 C 351.993 67.172, 350.630 68, 349.853 68 C 349.077 68, 347.793 68.900, 347 70 C 346.207 71.100, 344.951 72, 344.208 72 C 342.595 72, 340.752 73.727, 339.131 76.756 C 337.668 79.489, 337.606 124.362, 339.066 123.459 C 339.580 123.142, 340 124.034, 340 125.441 C 340 126.848, 339.550 128, 339 128 C 337.427 128, 337.671 159.680, 339.250 160.417 C 340.250 160.883, 340.250 161.117, 339.250 161.583 C 338.563 161.904, 338.007 163.142, 338.015 164.333 C 338.028 166.099, 338.210 166.222, 339 165 C 339.736 163.862, 339.973 164.284, 339.985 166.750 C 339.993 168.537, 339.550 170, 339 170 C 337.515 170, 337.790 172.933, 339.429 174.571 C 341.257 176.400, 342.763 176.380, 344.641 174.502 C 345.466 173.677, 347.346 172.705, 348.820 172.342 C 350.294 171.978, 352.228 170.852, 353.117 169.840 C 354.007 168.828, 355.263 168, 355.909 168 C 356.555 168, 358.050 167.100, 359.230 166 C 360.411 164.900, 361.967 164, 362.689 164 C 363.410 164, 364 163.550, 364 163 C 364 162.450, 364.900 162, 366 162 C 367.100 162, 368 161.550, 368 161 C 368 160.450, 368.801 160, 369.779 160 C 370.758 160, 372.207 159.100, 373 158 C 373.793 156.900, 375.242 156, 376.221 156 C 377.199 156, 378 155.550, 378 155 C 378 154.450, 378.801 154, 379.779 154 C 380.758 154, 382.207 153.100, 383 152 C 383.793 150.900, 384.927 150, 385.521 150 C 387.188 150, 391.983 147.592, 391.992 146.750 C 391.996 146.338, 392.900 146, 394 146 C 395.100 146, 396 145.550, 396 145 C 396 144.450, 396.801 144, 397.779 144 C 398.758 144, 400.207 143.100, 401 142 C 401.793 140.900, 403.242 140, 404.221 140 C 405.199 140, 406 139.550, 406 139 C 406 138.450, 406.694 138, 407.542 138 C 408.390 138, 410.050 137.100, 411.230 136 C 412.411 134.900, 413.967 134, 414.689 134 C 415.410 134, 416 133.550, 416 133 C 416 132.450, 416.801 132, 417.779 132 C 418.758 132, 420.207 131.100, 421 130 C 421.795 128.897, 423.589 128, 425 128 C 426.411 128, 428.205 127.103, 429 126 C 429.793 124.900, 431.242 124, 432.221 124 C 433.199 124, 434 123.622, 434 123.161 C 434 121.812, 438.812 120, 442.392 120 C 444.420 120, 446.387 120.770, 447.500 122 C 448.495 123.100, 450.266 124, 451.434 124 C 452.603 124, 454.207 124.900, 455 126 C 455.793 127.100, 457.242 128, 458.221 128 C 459.199 128, 460 128.450, 460 129 C 460 129.550, 460.900 130, 462 130 C 463.100 130, 464 130.450, 464 131 C 464 131.550, 464.694 132, 465.542 132 C 466.390 132, 468.050 132.900, 469.230 134 C 470.411 135.100, 471.967 136, 472.689 136 C 473.410 136, 474 136.361, 474 136.803 C 474 137.245, 476.243 138.707, 478.984 140.053 C 481.726 141.399, 483.976 142.838, 483.984 143.250 C 483.993 143.662, 484.900 144, 486 144 C 487.100 144, 488 144.450, 488 145 C 488 145.550, 488.900 146, 490 146 C 491.100 146, 492 146.450, 492 147 C 492 147.550, 492.900 148, 494 148 C 495.100 148, 496 147.550, 496 147 C 496 146.450, 496.900 146, 498 146 C 499.100 146, 500 145.550, 500 145 C 500 144.450, 500.801 144, 501.779 144 C 502.758 144, 504.207 143.100, 505 142 C 505.795 140.897, 507.589 140, 509 140 C 510.411 140, 512.205 139.103, 513 138 C 513.793 136.900, 515.242 136, 516.221 136 C 517.199 136, 518 135.550, 518 135 C 518 134.450, 518.801 134, 519.779 134 C 520.758 134, 522.207 133.100, 523 132 C 523.793 130.900, 525.242 130, 526.221 130 C 527.199 130, 528 129.550, 528 129 C 528 128.450, 528.801 128, 529.779 128 C 530.758 128, 532.207 127.100, 533 126 C 533.793 124.900, 535.242 124, 536.221 124 C 537.199 124, 538 123.550, 538 123 C 538 122.450, 538.735 122, 539.633 122 C 540.531 122, 542.147 120.988, 543.224 119.750 C 545.061 117.640, 545.162 116.191, 544.841 96.428 C 544.548 78.331, 544.263 75.119, 542.821 73.678 C 541.898 72.755, 540.436 72, 539.571 72 C 538.707 72, 538 71.605, 538 71.121 C 538 70.638, 536.650 69.683, 535 69 C 533.350 68.317, 532 67.362, 532 66.879 C 532 66.395, 531.100 66, 530 66 C 528.900 66, 528 65.550, 528 65 C 528 64.450, 527.306 64, 526.458 64 C 525.610 64, 523.950 63.100, 522.770 62 C 521.589 60.900, 520.033 60, 519.311 60 C 518.590 60, 518 59.607, 518 59.126 C 518 58.646, 515.058 56.847, 511.461 55.129 C 507.865 53.412, 503.955 51.105, 502.773 50.003 C 501.590 48.901, 499.789 48, 498.770 48 C 497.750 48, 495.950 47.100, 494.770 46 C 493.589 44.900, 492.033 44, 491.311 44 C 490.590 44, 490 43.550, 490 43 C 490 42.450, 489.306 42, 488.458 42 C 487.610 42, 485.950 41.100, 484.770 40 C 483.589 38.900, 482.033 38, 481.311 38 C 480.590 38, 480 37.550, 480 37 C 480 36.450, 479.306 36, 478.458 36 C 477.610 36, 475.950 35.100, 474.770 34 C 473.589 32.900, 472.033 32, 471.311 32 C 470.590 32, 470 31.550, 470 31 C 470 30.450, 469.170 30, 468.155 30 C 467.140 30, 465.495 29.100, 464.500 28 C 463.505 26.900, 461.800 26, 460.712 26 C 459.625 26, 458.002 25.212, 457.107 24.250 C 455.103 22.096, 451.467 20, 449.734 20 C 449.023 20, 447.793 19.100, 447 18 C 446.023 16.645, 444.411 16, 442 16 C 439.589 16, 437.977 16.645, 437 18" stroke="none" fill="#e6152a" fill-rule="evenodd"/></svg>